PathFileType	4	(X/Y/Z)	c:/Users/goper/Files/vsCode/490R/osim_files/A01/A01_PWS_03.trc
DataRate	CameraRate	NumFrames	NumMarkers	Units                	OrigDataRate	OrigDataStartFrame	OrigNumFrames
120.00	120.00	8	36	mm	120.0	1094	1750
                Frame#	Time	Mobility_markerset:LPSIS			Mobility_markerset:LASIS			Mobility_markerset:LTH1			Mobility_markerset:LTH2			Mobility_markerset:LTH3			Mobility_markerset:LTH4			Mobility_markerset:LLFE			Mobility_markerset:LMFE			Mobility_markerset:LSH1			Mobility_markerset:LSH2			Mobility_markerset:LSH3			Mobility_markerset:LSH4			Mobility_markerset:LLMAL			Mobility_markerset:LMMAL			Mobility_markerset:LCAL			Mobility_markerset:LMTP5			Mobility_markerset:LTOE			Mobility_markerset:LMTP1			Mobility_markerset:RPSIS			Mobility_markerset:RASIS			Mobility_markerset:RTH1			Mobility_markerset:RTH2			Mobility_markerset:RTH3			Mobility_markerset:RTH4			Mobility_markerset:RLFE			Mobility_markerset:RMFE			Mobility_markerset:RSH1			Mobility_markerset:RSH2			Mobility_markerset:RSH3			Mobility_markerset:RSH4			Mobility_markerset:RLMAL			Mobility_markerset:RMMAL			Mobility_markerset:RCAL			Mobility_markerset:RMTP1			Mobility_markerset:RTOE			Mobility_markerset:RMTP5		
		X1	Y1	Z1	X2	Y2	Z2	X3	Y3	Z3	X4	Y4	Z4	X5	Y5	Z5	X6	Y6	Z6	X7	Y7	Z7	X8	Y8	Z8	X9	Y9	Z9	X10	Y10	Z10	X11	Y11	Z11	X12	Y12	Z12	X13	Y13	Z13	X14	Y14	Z14	X15	Y15	Z15	X16	Y16	Z16	X17	Y17	Z17	X18	Y18	Z18	X19	Y19	Z19	X20	Y20	Z20	X21	Y21	Z21	X22	Y22	Z22	X23	Y23	Z23	X24	Y24	Z24	X25	Y25	Z25	X26	Y26	Z26	X27	Y27	Z27	X28	Y28	Z28	X29	Y29	Z29	X30	Y30	Z30	X31	Y31	Z31	X32	Y32	Z32	X33	Y33	Z33	X34	Y34	Z34	X35	Y35	Z35	X36	Y36	Z36

1094	9.10833	-4132.34033	1076.02759	382.22318	-4081.89307	1020.01465	619.16162	0.00000	0.00000	0.00000	-4031.15991	656.66278	607.17719	-4016.45044	718.62628	642.89575	-4030.71167	677.73108	654.44312	0.00000	0.00000	0.00000	0.00000	0.00000	0.00000	-1441.47961	1323.60803	3066.02637	0.00000	0.00000	0.00000	0.00000	0.00000	0.00000	0.00000	0.00000	0.00000	-4182.75049	101.30385	769.13837	-4266.74023	115.27738	783.89520	-4250.95068	66.03455	713.14233	-4124.74316	73.93499	905.51642	-4183.61230	116.23490	942.81567	-4221.63965	106.46249	940.82495	-4230.97266	1077.78552	372.23849	0.00000	0.00000	0.00000	-4354.69336	697.23029	363.86118	-4351.84717	653.56165	368.73880	-4376.65527	694.05139	422.61829	-4371.27490	651.87708	417.27744	-4328.27295	508.51569	391.93851	0.00000	0.00000	0.00000	-4267.88672	336.85492	269.26920	-4264.13379	291.49588	261.70010	-4305.39307	321.02411	314.60022	-4298.79541	278.48575	301.60721	-4234.15039	113.59689	256.21381	0.00000	0.00000	0.00000	0.00000	0.00000	0.00000	-4282.66650	48.23802	412.08893	-4339.36084	56.31712	404.13687	-4345.19189	39.53479	314.48694
1095	9.11667	-4133.76025	1074.76721	387.06396	-4082.33008	1018.32849	623.52045	0.00000	0.00000	0.00000	-4032.88696	654.98718	609.05347	-4017.33301	716.23785	645.28369	0.00000	0.00000	0.00000	0.00000	0.00000	0.00000	0.00000	0.00000	0.00000	-1442.05908	1323.44946	3065.00757	0.00000	0.00000	0.00000	0.00000	0.00000	0.00000	0.00000	0.00000	0.00000	-4182.42578	99.15613	771.51184	-4266.03516	113.21323	787.96954	-4251.61914	64.24500	716.69385	-4121.63428	71.24184	906.71796	-4179.79492	113.35037	945.38049	-4217.83691	103.60815	943.94684	-4232.52197	1076.94250	377.37616	0.00000	0.00000	0.00000	-4356.25781	696.97443	368.00598	-4353.28809	653.24146	372.68060	-4378.97852	693.89862	426.38138	-4374.01123	651.92871	420.68353	-4329.40381	508.09192	395.04227	0.00000	0.00000	0.00000	-4268.76758	337.38538	271.03613	-4264.96484	292.13940	263.19620	-4306.18457	321.18054	316.33801	-4299.53516	278.74384	303.01831	-4234.51416	114.19233	256.34363	0.00000	0.00000	0.00000	0.00000	0.00000	0.00000	-4282.71582	48.26242	412.05331	-4339.41748	56.23237	404.12460	-4345.20020	39.51873	314.47629
1096	9.12500	-4135.16211	1073.50037	392.03482	-4082.36841	1016.58423	627.98096	0.00000	0.00000	0.00000	-4034.92773	652.67859	612.22058	0.00000	0.00000	0.00000	0.00000	0.00000	0.00000	0.00000	0.00000	0.00000	0.00000	0.00000	0.00000	-1442.69714	1323.21570	3063.91138	0.00000	0.00000	0.00000	0.00000	0.00000	0.00000	0.00000	0.00000	0.00000	-4181.68994	96.79114	773.04901	-4265.02930	110.68569	790.84814	-4251.38525	62.02193	719.46088	0.00000	0.00000	0.00000	-4176.50537	109.98370	947.06342	-4214.55566	100.30627	946.01776	-4234.13525	1076.09863	382.62888	0.00000	0.00000	0.00000	-4357.82275	696.69891	372.30908	-4354.75732	652.94104	376.79337	-4380.20410	693.38611	430.80399	-4374.84375	651.29443	425.09192	-4330.64600	507.78964	398.27582	0.00000	0.00000	0.00000	-4269.63525	337.96756	272.92865	-4266.12549	293.24414	264.85803	-4306.95215	321.33957	318.15524	-4300.23438	279.02966	304.52997	-4234.90869	114.82004	256.53796	0.00000	0.00000	0.00000	0.00000	0.00000	0.00000	-4282.80322	48.33803	412.04007	-4339.49658	56.14895	404.11716	-4345.24316	39.47550	314.47144
1097	9.13333	-4136.59229	1072.24109	397.09348	-4082.66577	1014.82318	632.81464	0.00000	0.00000	0.00000	-4036.21167	651.31952	615.07904	0.00000	0.00000	0.00000	0.00000	0.00000	0.00000	0.00000	0.00000	0.00000	0.00000	0.00000	0.00000	-1443.22083	1323.06274	3062.95532	0.00000	0.00000	0.00000	0.00000	0.00000	0.00000	0.00000	0.00000	0.00000	-4181.07471	95.15083	773.75739	-4264.13135	108.39202	792.81989	-4251.53271	62.00083	721.06952	0.00000	0.00000	0.00000	-4173.99902	106.46473	948.28143	-4211.60254	96.21086	947.41431	-4235.65576	1075.17566	387.97824	0.00000	0.00000	0.00000	-4359.38477	696.37274	376.73471	-4356.25781	652.65125	381.09418	-4381.46680	692.87726	435.36520	-4376.01074	650.76886	429.51654	-4331.88916	507.35736	401.71530	0.00000	0.00000	0.00000	-4270.52246	338.58759	274.96558	-4266.47803	293.34534	266.44366	-4307.78467	321.52863	320.06467	-4300.96826	279.35129	306.12872	-4235.35010	115.54810	256.84650	0.00000	0.00000	0.00000	0.00000	0.00000	0.00000	-4282.89844	48.39703	412.02042	-4339.58252	56.07056	404.14999	-4345.29150	39.48573	314.48859
1098	9.14167	-4137.91846	1070.98145	402.34549	-4082.94922	1013.20367	637.88239	0.00000	0.00000	0.00000	0.00000	0.00000	0.00000	0.00000	0.00000	0.00000	-4378.29150	302.05188	859.39154	0.00000	0.00000	0.00000	0.00000	0.00000	0.00000	-1443.83167	1322.99805	3061.93970	0.00000	0.00000	0.00000	0.00000	0.00000	0.00000	0.00000	0.00000	0.00000	-4181.44141	94.16323	774.12366	-4263.24658	106.76973	794.02484	-4252.03369	61.90298	722.17737	0.00000	0.00000	0.00000	-4171.09570	102.12486	949.26038	-4208.94141	92.33761	948.46912	-4237.16602	1074.21375	393.40610	0.00000	0.00000	0.00000	-4360.98193	696.04547	381.35904	-4357.76758	652.31543	385.57788	-4382.67383	692.31335	440.05084	-4377.29883	650.28448	434.07245	-4333.14893	506.98309	405.35944	0.00000	0.00000	0.00000	-4271.39355	339.28162	277.15057	-4267.30957	294.14731	268.30551	-4308.62695	321.79547	322.12750	-4301.69287	279.72131	307.84589	-4235.76074	116.33342	257.14050	0.00000	0.00000	0.00000	0.00000	0.00000	0.00000	-4283.00342	48.46764	412.02579	-4339.68164	55.99586	404.19550	-4345.32471	39.47884	314.52557
1099	9.15000	-4139.28613	1069.72791	407.70825	-4083.13306	1011.41980	643.21442	0.00000	0.00000	0.00000	-4038.12524	648.17224	622.47577	0.00000	0.00000	0.00000	0.00000	0.00000	0.00000	0.00000	0.00000	0.00000	-4209.73584	571.75702	745.62689	-1444.34839	1322.82336	3061.01904	0.00000	0.00000	0.00000	0.00000	0.00000	0.00000	0.00000	0.00000	0.00000	-4182.39600	93.52461	774.46863	-4263.87012	105.10632	795.81091	-4253.44629	61.44172	723.51471	0.00000	0.00000	0.00000	-4169.62061	99.51125	950.12683	-4207.38916	89.63283	949.88818	-4238.65332	1073.28101	398.94974	0.00000	0.00000	0.00000	-4362.56348	695.72949	386.12979	-4359.23828	651.97504	390.26224	-4383.98535	691.79486	444.94089	-4378.49023	649.74866	438.82220	-4334.43066	506.61475	409.20245	0.00000	0.00000	0.00000	-4272.32764	340.01825	279.51035	-4268.58496	295.50784	270.37009	-4309.45801	322.10635	324.38519	-4302.44922	280.15482	309.77130	-4236.27393	117.35220	257.53561	0.00000	0.00000	0.00000	0.00000	0.00000	0.00000	-4283.10010	48.53966	412.03204	-4339.78711	55.88071	404.25143	-4345.37207	39.55090	314.57114
1100	9.15833	-4140.61426	1068.54675	413.19952	-4083.51099	1009.83209	648.69043	0.00000	0.00000	0.00000	-4039.35889	646.48944	626.63763	0.00000	0.00000	0.00000	0.00000	0.00000	0.00000	0.00000	0.00000	0.00000	-4210.52051	571.70251	749.63379	-1444.88257	1322.74805	3060.11011	0.00000	0.00000	0.00000	0.00000	0.00000	0.00000	0.00000	0.00000	0.00000	-4183.54639	93.09254	775.04352	-4265.39795	103.61099	797.73578	-4255.18359	61.24091	724.50305	0.00000	0.00000	0.00000	-4169.86182	98.03017	950.80365	-4207.43652	87.36566	950.25989	-4240.67871	1072.47241	403.84546	0.00000	0.00000	0.00000	-4364.06641	695.33948	391.12646	-4360.74316	651.63452	395.10355	-4385.30908	691.32990	450.06210	-4379.69141	649.22461	443.77405	-4335.71436	506.26868	413.24857	0.00000	0.00000	0.00000	-4273.26221	340.79367	282.05450	-4268.98096	295.79169	272.40973	-4310.26270	322.33154	326.83508	-4303.21680	280.57938	311.85483	-4236.71240	118.36532	258.03836	0.00000	0.00000	0.00000	0.00000	0.00000	0.00000	-4283.16943	48.58083	412.02548	-4339.90479	55.79823	404.31229	-4345.40088	39.64653	314.64902
1101	9.16667	-4141.77930	1067.45056	418.84674	-4083.93457	1008.27124	654.23792	0.00000	0.00000	0.00000	-4039.51611	645.08148	630.54211	0.00000	0.00000	0.00000	0.00000	0.00000	0.00000	0.00000	0.00000	0.00000	-4210.96631	570.78033	752.32007	-1445.43848	1322.63806	3059.21021	0.00000	0.00000	0.00000	0.00000	0.00000	0.00000	0.00000	0.00000	0.00000	-4184.43799	92.66326	775.71149	-4266.36279	102.46066	798.70624	-4255.89062	60.93614	725.17963	0.00000	0.00000	0.00000	-4170.83447	96.10381	951.64032	-4208.28662	85.48293	951.45685	-4242.08691	1071.55212	409.60248	-4337.59521	978.00739	614.58405	-4365.58057	695.02673	396.31091	-4362.12207	651.28815	400.18365	-4386.43555	690.82068	455.33661	-4380.91357	648.77795	448.93213	-4336.92480	505.89536	417.56482	0.00000	0.00000	0.00000	-4274.19287	341.61954	284.80252	-4269.77002	296.70303	274.73596	-4311.08447	322.71912	329.47824	-4303.89404	281.07626	314.08636	-4237.21289	119.54193	258.57794	0.00000	0.00000	0.00000	0.00000	0.00000	0.00000	-4283.25195	48.65719	412.04648	-4339.98730	55.73325	404.42322	-4345.41699	39.78510	314.75867
